<?xml version="1.0" encoding="UTF-8"?>
<svg id="Layer_1" data-name="Layer 1" xmlns="http://www.w3.org/2000/svg" viewBox="0 0 300 300">
  <defs>
    <style>
      .cls-1 {
        fill: #85b989;
        fill-rule: evenodd;
        stroke-width: 0px;
      }
    </style>
  </defs>
  <g id="layer1">
    <path id="path8726" class="cls-1" d="m251.08,15.23c-18.49,0-33.69,15.2-33.69,33.69,0,5.77,1.5,11.23,4.1,16l-17.47,17.45c-14.83-11.87-33.61-19.01-54.02-19.01-20.41,0-39.19,7.13-54.02,19.01l-17.41-17.41c5.36-9.98,5.64-22.45-.39-32.9-9.26-16.04-30.05-21.61-46.08-12.35-16.04,9.26-21.59,30.05-12.33,46.08,9.1,15.76,29.3,21.39,45.22,12.8l17.39,17.39c-11.87,14.83-19.01,33.61-19.01,54.02s7.13,39.19,19.01,54.02l-17.45,17.47h-.02c-4.77-2.6-10.21-4.1-15.98-4.1-18.49,0-33.69,15.2-33.69,33.69,0,18.49,15.2,33.69,33.69,33.69,18.49,0,33.69-15.2,33.69-33.69,0-5.77-1.5-11.23-4.1-16l17.24-17.22c1.12,1.25,2.54,2.19,4.14,2.73,14.16,10.09,31.45,16.06,50.11,16.06,19.3,0,37.15-6.36,51.57-17.09.84-.47,1.6-1.07,2.26-1.77.06-.05.12-.1.19-.15l17.47,17.47c-2.6,4.77-4.1,10.21-4.1,15.98,0,18.49,15.2,33.69,33.69,33.69s33.69-15.2,33.69-33.69-15.2-33.69-33.69-33.69c-5.77,0-11.21,1.5-15.98,4.1h-.02s-17.45-17.47-17.45-17.47c11.87-14.83,19.01-33.61,19.01-54.02,0-20.41-7.13-39.19-19.01-54.02l17.47-17.47c4.77,2.6,10.21,4.1,15.98,4.1,18.49,0,33.69-15.2,33.69-33.69,0-18.49-15.2-33.69-33.69-33.69h0ZM48.6,34.41c5.12-.16,10.11,2.45,12.9,7.28,4.06,7.03,1.72,15.72-5.3,19.78-7.03,4.06-15.7,1.72-19.76-5.3-4.06-7.03-1.74-15.72,5.28-19.78,2.2-1.27,4.55-1.9,6.88-1.97h0Zm202.48.08c8.09,0,14.44,6.35,14.44,14.44,0,8.09-6.35,14.44-14.44,14.44-8.09,0-14.44-6.35-14.44-14.44,0-8.09,6.35-14.44,14.44-14.44Zm-101.08,48.13c37.33,0,67.39,30.06,67.39,67.39,0,17.09-6.31,32.63-16.71,44.48-5.87-10.69-15.03-19.34-26.1-24.56,8.49-7.08,13.93-17.72,13.93-29.56,0-21.15-17.35-38.51-38.51-38.51-21.15,0-38.51,17.35-38.51,38.51,0,11.84,5.44,22.47,13.93,29.56-11.06,5.22-20.23,13.86-26.1,24.56-10.41-11.85-16.71-27.4-16.71-44.49,0-37.33,30.06-67.39,67.39-67.39Zm0,38.51c10.75,0,19.25,8.51,19.25,19.25,0,10.75-8.51,19.25-19.25,19.25-10.75,0-19.25-8.51-19.25-19.25,0-10.75,8.51-19.25,19.25-19.25Zm0,62.57c16.08,0,29.74,9.76,35.54,23.63-10.3,6.38-22.47,10.06-35.54,10.06s-25.23-3.68-35.54-10.06c5.8-13.87,19.45-23.63,35.54-23.63Zm-101.08,52.95c8.09,0,14.44,6.35,14.44,14.44,0,8.09-6.35,14.44-14.44,14.44-8.09,0-14.44-6.35-14.44-14.44s6.35-14.44,14.44-14.44Zm202.16,0c8.09,0,14.44,6.35,14.44,14.44,0,8.09-6.35,14.44-14.44,14.44s-14.44-6.35-14.44-14.44c0-8.09,6.35-14.44,14.44-14.44Z"/>
  </g>
</svg>