<?xml version="1.0" encoding="UTF-8"?>
<svg id="Layer_2" data-name="Layer 2" xmlns="http://www.w3.org/2000/svg" viewBox="0 0 264.62 245.25">
  <defs>
    <style>
      .cls-1 {
        fill: #85b989;
        stroke-width: 0px;
      }
    </style>
  </defs>
  <g id="Layer_1-2" data-name="Layer 1">
    <g>
      <path class="cls-1" d="m243.66,77.91h0c3.63-3.63,9.84-1.06,9.84,4.07v110.97c0,3.18-2.58,5.76-5.76,5.76h-69.14c-3.18,0-5.76,2.58-5.76,5.76v35c0,5.13-6.21,7.7-9.84,4.07l-43.15-43.15c-1.08-1.08-2.55-1.69-4.07-1.69H5.76c-3.18,0-5.76-2.58-5.76-5.76V20.11c0-3.18,2.58-5.76,5.76-5.76h173.48c5.13,0,7.7,6.21,4.07,9.84h0c-1.08,1.08-2.55,1.69-4.07,1.69H17.28c-3.18,0-5.76,2.58-5.76,5.76v149.79c0,3.18,2.58,5.76,5.76,5.76h103.25c1.53,0,2.99.61,4.07,1.69l26.87,26.86c3.63,3.63,9.83,1.06,9.83-4.07v-18.71c0-3.18,2.58-5.76,5.76-5.76h69.14c3.18,0,5.76-2.58,5.76-5.76v-99.45c0-1.53.61-2.99,1.69-4.07Zm17.41-58.14c4.5,4.18,4.76,11.21.58,15.71-.08.08-.15.16-.23.24l-107.45,107.44-47.21,20.22c-2.17.93-4.68-.08-5.61-2.25-.46-1.07-.46-2.29,0-3.36l20.22-47.21L228.64,3.3c4.41-4.4,11.55-4.4,15.96,0l16.47,16.47Zm-116.38,114.82l-14.75-14.75-11.07,25.81,25.82-11.06Zm83.46-81.93l-16.29-16.28-74.54,74.55,16.29,16.28,74.54-74.55Zm21.49-28.17l-9.26-9.66c-1.85-1.93-4.91-1.99-6.84-.14-.02.02-.05.05-.07.07l-13.46,13.46,16.29,16.3,13.27-13.27c1.86-1.86,1.89-4.86.07-6.76Z"/>
      <rect class="cls-1" x="25.71" y="166.84" width="194.29" height="9.94"/>
      <rect class="cls-1" x="25.71" y="135.63" width="194.29" height="9.94"/>
      <g>
        <polygon class="cls-1" points="131.78 108.46 135.98 104.42 25.71 104.42 25.71 114.36 135.28 114.36 131.78 108.46"/>
        <polygon class="cls-1" points="170.9 114.36 220 114.36 220 104.42 182.1 104.42 170.9 114.36"/>
      </g>
      <g>
        <polygon class="cls-1" points="168.5 73.21 25.71 73.21 25.71 83.15 158.14 83.15 168.5 73.21"/>
        <polygon class="cls-1" points="207.52 81.87 206.07 83.15 220 83.15 220 73.21 217.35 73.21 207.52 81.87"/>
      </g>
      <polygon class="cls-1" points="201.01 42 25.71 42 25.71 51.94 190.66 51.94 201.01 42"/>
    </g>
  </g>
</svg>