<?xml version="1.0" encoding="UTF-8"?>
<svg id="Layer_1" data-name="Layer 1" xmlns="http://www.w3.org/2000/svg" viewBox="0 0 268.38 268.38">
  <defs>
    <style>
      .cls-1 {
        fill: #8058a5;
      }

      .cls-1, .cls-2 {
        stroke-width: 0px;
      }

      .cls-2 {
        fill: #4ac6df;
      }
    </style>
  </defs>
  <g>
    <polygon class="cls-1" points="91.49 130.31 91.57 129.2 91.5 130.01 91.49 130.31"/>
    <path class="cls-1" d="m97.27,119.53l-.32.24.77-.55c-.15.1-.31.21-.46.32Z"/>
    <path class="cls-1" d="m115.11,130.21l-.5-.57-2.88-3.67c-1.3-1.66-3.21-2.73-5.3-2.99-2.09-.25-4.2.34-5.86,1.64-1.66,1.3-2.73,3.21-2.99,5.3-.22,1.8.18,3.6,1.15,5.16l.53.76,16.25,21.98,13.95-11.6-9.03-14.39c-1.9.34-3.9-.21-5.32-1.63Z"/>
    <path class="cls-1" d="m183.66,47.09l-107.99-13.04c-13.25-1.6-25.3,7.85-26.9,21.1l-18.83,155.99c-1.6,13.25,7.85,25.3,21.1,26.9l107.99,13.04c13.25,1.6,25.3-7.85,26.9-21.1l18.83-155.99c1.6-13.25-7.85-25.3-21.1-26.9Zm-111.62,16.96c.4-3.31,3.41-5.68,6.72-5.28l12,1.45c3.31.4,5.68,3.41,5.28,6.72s-3.41,5.68-6.72,5.28l-12-1.45c-3.31-.4-5.68-3.41-5.28-6.72Zm90.61,157.03c-.4,3.31-3.41,5.68-6.72,5.28l-12-1.45c-3.31-.4-5.68-3.41-5.28-6.72s3.41-5.68,6.72-5.28l12,1.45c3.31.4,5.68,3.41,5.28,6.72Zm30-81.64s-9.19,14.3-12,18.38c-2.81,4.09-21.19,14.04-21.19,14.04l-19.84-9.45-3.68-5.87-17.62,14.66c-1.28,1.06-2.94,1.55-4.59,1.35-1.65-.2-3.15-1.07-4.13-2.41l-19.95-26.98c-3.24-4.17-4.71-9.45-4.07-14.7.64-5.28,3.34-10.09,7.52-13.37,4.04-3.17,9.13-4.64,14.23-4.17l-3.52-5.61,22.66-19.76,17.68-2.04,25.02,2.04,20.17,7.68,6.38,19.39-3.06,26.81Z"/>
  </g>
  <g id="icons">
    <g id="ui-gambling-website-lined-icnos-casinoshunter">
      <g id="_1" data-name="1">
        <path id="casino-card" class="cls-2" d="m218.56,29.5c13.25,1.6,22.7,13.64,21.1,26.9l-18.83,155.99c-1.6,13.25-13.64,22.7-26.9,21.1l-107.99-13.04c-13.25-1.6-22.7-13.64-21.1-26.9l18.83-155.99c1.6-13.25,13.64-22.7,26.9-21.1l107.99,13.04Zm-26.28,167.27l-12-1.45c-3.31-.4-6.32,1.96-6.72,5.28s1.96,6.32,5.28,6.72h0l12,1.45c3.31.4,6.32-1.96,6.72-5.28.4-3.31-1.96-6.32-5.28-6.72h0Zm-23.31-100.21c-4.39-.53-8.81.41-12.58,2.63h0l-1.11.71c-3.23-3.6-7.67-5.92-12.51-6.5-5.28-.64-10.59.85-14.77,4.13-4.18,3.28-6.89,8.09-7.52,13.37-.63,5.25.83,10.53,4.07,14.7h0l19.95,26.98c.99,1.34,2.48,2.21,4.13,2.41s3.31-.29,4.59-1.35h0l25.85-21.5c4.09-3.23,6.77-8.01,7.4-13.26s-.85-10.59-4.13-14.77c-3.28-4.18-8.09-6.89-13.37-7.52Zm-1.45,12c2.09.25,4,1.33,5.31,2.99,1.3,1.66,1.89,3.77,1.64,5.86-.22,1.79-1.04,3.45-2.31,4.71h0l-.74.65-21.01,17.47-16.25-21.98-.53-.76c-.97-1.56-1.37-3.37-1.15-5.16.25-2.1,1.33-4,2.99-5.3,1.66-1.3,3.77-1.89,5.86-1.64s4,1.33,5.3,2.99h0l2.88,3.67.5.57c2.13,2.11,5.55,2.36,7.98.46h0l3.67-2.88.74-.51c1.52-.94,3.33-1.34,5.12-1.13Zm-41.05,3.06l-.09,1.11.02-.3.07-.8Zm6.15-9.98l-.77.55.32-.24c.15-.11.3-.21.46-.32Zm32.7.89l-1.46.2,1.14-.18h0l.32-.03Zm.83-.05l-.83.05.16-.02.66-.04h0Zm-40.49-59.83l-12-1.45c-3.31-.4-6.32,1.96-6.72,5.28s1.96,6.32,5.28,6.72h0l12,1.45c3.31.4,6.32-1.96,6.72-5.28s-1.96-6.32-5.28-6.72h0Z"/>
      </g>
    </g>
  </g>
</svg>