<?xml version="1.0" encoding="UTF-8"?>
<svg id="Layer_1" data-name="Layer 1" xmlns="http://www.w3.org/2000/svg" viewBox="0 0 300 300">
  <defs>
    <style>
      .cls-1 {
        fill: #85b989;
        stroke-width: 0px;
      }
    </style>
  </defs>
  <path id="casino-card" class="cls-1" d="m159.08,41.64c13.54-1.43,25.81,9.56,27.39,24.56l18.65,176.47c1.58,14.99-8.11,28.31-21.65,29.74l-110.35,11.66c-13.54,1.43-25.81-9.56-27.39-24.56L27.08,83.04c-1.58-14.99,8.11-28.31,21.65-29.74l110.35-11.66Zm1.43,13.57l-110.35,11.66c-6.77.72-11.62,7.37-10.83,14.87l18.65,176.47c.79,7.5,6.92,12.99,13.7,12.28l110.35-11.66c6.77-.72,11.62-7.37,10.83-14.87l-18.65-176.47c-.79-7.5-6.92-12.99-13.7-12.28Zm-30.8,104.61l-13.46-26.05c-2.02-3.92-7.84-3.16-8.78,1.15l-6.3,28.6c-.23,1.05-.1,2.15.39,3.12l12.79,25.63c1.96,3.92,7.74,3.28,8.79-.97l6.96-28.19c.27-1.11.14-2.28-.39-3.29Z"/>
  <g>
    <path class="cls-1" d="m249.86,21.67l-110.81-5.83c-13.6-.72-25.27,10.91-26.06,25.97l-.83,15.74,12.46-2.19.68-12.9c.4-7.53,6.23-13.34,13.03-12.98l110.81,5.83c6.8.36,11.99,6.75,11.59,14.28l-9.32,177.21c-.4,7.53-6.23,13.34-13.03,12.98l-41.41-2.18,1.57,13.75,39.12,2.06c13.6.72,25.27-10.91,26.06-25.97l9.32-177.21c.79-15.06-9.59-27.84-23.19-28.56Z"/>
    <path class="cls-1" d="m222.82,124.93c.32-5.99-1.53-11.86-5.14-16.3-3.61-4.44-8.67-7.09-14.09-7.38-4.51-.24-8.95,1.18-12.65,4l-1.09.89c-1.55-1.67-3.33-3.04-5.26-4.08l1.63,19.56c2.24,1.44,5.17,1.18,7.23-.86l3.56-3.55.72-.64c1.49-1.18,3.31-1.78,5.15-1.69,2.15.11,4.16,1.17,5.59,2.93,1.43,1.76,2.16,4.09,2.04,6.47-.11,2.04-.84,3.97-2.06,5.5l-.71.79-19.09,20.13,1.42,17.02c.39-.26.76-.57,1.1-.92l24.97-26.33c3.96-3.97,6.39-9.58,6.7-15.54Zm-22.56-16.67l-1.48.35,1.15-.29.33-.06.17-.03.67-.1-.84.13Z"/>
  </g>
</svg>