<?xml version="1.0" encoding="UTF-8"?>
<svg id="Layer_1" data-name="Layer 1" xmlns="http://www.w3.org/2000/svg" viewBox="0 0 268.38 268.38">
  <defs>
    <style>
      .cls-1 {
        fill: #85b989;
      }

      .cls-1, .cls-2 {
        stroke-width: 0px;
      }

      .cls-2 {
        fill: #020202;
      }
    </style>
  </defs>
  <circle class="cls-1" cx="134.19" cy="134.19" r="117.91"/>
  <path class="cls-2" d="m139.07,71.35c-12.58-.53-24.53,2.26-35.02,7.57l-38.94-38.9v99.3c-1.66,39.19,28.77,72.31,67.97,73.96,39.19,1.66,72.31-28.77,73.96-67.97,1.66-39.19-28.77-72.31-67.97-73.96Zm-19.05,96.12c4.91,5.45,11.15,8.17,18.72,8.17s13.68-2.34,17.75-7.01c2.25-2.51,4.12-6.28,5.61-11.31h22.48c-1.94,10.63-6.89,19.27-14.86,25.93-7.97,6.66-18.18,9.99-30.64,9.99-15.41,0-27.52-4.5-36.34-13.49-8.82-9.04-13.23-21.43-13.23-37.17,0-17.02,5.02-30.14,15.05-39.35,8.72-8.02,19.82-12.04,33.29-12.04,18.03,0,31.21,5.38,39.54,16.14,4.6,6.04,7.07,12.1,7.41,18.19h-22.63c-1.44-4.67-3.29-8.2-5.54-10.58-4.03-4.23-10-6.35-17.92-6.35s-14.42,2.99-19.08,8.96c-4.65,5.98-6.98,14.43-6.98,25.36s2.46,19.12,7.37,24.57Z"/>
</svg>