<?xml version="1.0" encoding="UTF-8"?>
<svg id="Layer_1" data-name="Layer 1" xmlns="http://www.w3.org/2000/svg" viewBox="0 0 300 300">
  <defs>
    <style>
      .cls-1, .cls-2 {
        fill: #85b989;
        stroke-width: 0px;
      }

      .cls-2 {
        fill-rule: evenodd;
      }
    </style>
  </defs>
  <circle class="cls-1" cx="150.02" cy="150.01" r="65.76"/>
  <path class="cls-2" d="m67.81,149.98c0-9.09-7.35-16.44-16.44-16.44h-16.44c-9.09,0-16.44,7.35-16.44,16.44s7.35,16.44,16.44,16.44h16.44c9.09,0,16.44-7.35,16.44-16.44Z"/>
  <path class="cls-2" d="m68.65,208.1l-11.64,11.64c-6.42,6.42-6.42,16.83,0,23.25,6.42,6.42,16.83,6.42,23.25,0l11.64-11.64c6.42-6.42,6.42-16.83,0-23.25-6.43-6.42-16.83-6.42-23.25,0Z"/>
  <path class="cls-2" d="m150.02,232.19c-9.09,0-16.44,7.35-16.44,16.44v16.44c0,9.09,7.35,16.44,16.44,16.44s16.44-7.35,16.44-16.44l-.02-16.44c.02-9.09-7.35-16.44-16.42-16.44Z"/>
  <path class="cls-2" d="m231.37,208.12c-6.41-6.44-16.81-6.44-23.23-.02-6.42,6.42-6.42,16.83,0,23.25l11.63,11.62c6.42,6.45,16.83,6.42,23.25,0s6.44-16.81,0-23.25l-11.64-11.61Z"/>
  <path class="cls-2" d="m265.1,133.54l-16.48.03c-9.05-.03-16.41,7.32-16.41,16.41-.03,9.09,7.35,16.44,16.41,16.44h16.44c9.12.03,16.44-7.35,16.44-16.44.02-9.07-7.32-16.44-16.41-16.44Z"/>
  <path class="cls-2" d="m231.37,91.88l11.62-11.63c6.47-6.44,6.42-16.83,0-23.25-6.41-6.44-16.81-6.44-23.23-.02l-11.63,11.66c-6.42,6.39-6.42,16.79,0,23.22,6.39,6.46,16.83,6.43,23.23.02Z"/>
  <path class="cls-2" d="m150.02,67.78c9.07.07,16.44-7.35,16.44-16.41v-16.44c0-9.12-7.35-16.44-16.44-16.44-9.09-.03-16.44,7.32-16.44,16.41l.03,16.47c-.03,9.05,7.32,16.4,16.41,16.4Z"/>
  <path class="cls-2" d="m68.68,91.86c6.39,6.42,16.76,6.42,23.2-.02,6.47-6.37,6.44-16.81.03-23.22l-11.63-11.62c-6.45-6.46-16.83-6.41-23.25,0-6.47,6.41-6.47,16.81-.05,23.23l11.69,11.62Z"/>
</svg>