<?xml version="1.0" encoding="UTF-8"?>
<svg id="Layer_1" data-name="Layer 1" xmlns="http://www.w3.org/2000/svg" viewBox="0 0 300 300">
  <defs>
    <style>
      .cls-1 {
        fill: #fff;
        stroke-width: 0px;
      }
    </style>
  </defs>
  <path class="cls-1" d="m292.6,150.86c0-78.74-63.84-142.58-142.6-142.58S7.4,72.12,7.4,150.87c0,70.89,51.73,129.69,119.49,140.73l.82.11v-99.63h-36.21v-41.23h36.21v-31.4c-.18-1.59-.28-3.43-.28-5.3,0-27.79,22.54-50.33,50.33-50.33,1.34,0,2.67.06,3.99.15h-.17c11.4.15,22.43,1.16,33.2,2.96l-1.27-.18v35.09h-17.99c-.82-.11-1.76-.18-2.71-.18-11.38,0-20.62,9.22-20.62,20.62,0,.65.03,1.28.09,1.92v-.09s0,26.74,0,26.74h39.55l-6.32,41.23h-33.22v99.63c68.59-11.16,120.32-69.98,120.33-140.87h0Z"/>
</svg>