<?xml version="1.0" encoding="UTF-8"?>
<svg id="Layer_1" data-name="Layer 1" xmlns="http://www.w3.org/2000/svg" viewBox="0 0 300 300">
  <defs>
    <style>
      .cls-1 {
        fill: #85b989;
        stroke-width: 0px;
      }
    </style>
  </defs>
  <path class="cls-1" d="m106.32,54.52h139.36c6.3,0,11.62,5.32,11.62,11.62v69.71c0,6.3-5.32,11.62-11.62,11.62h-23.24s0,32.7,0,32.7l-31.28-27.04-6.54-5.66h-78.37s-.93-.09-.93-.09c-6.11-.6-10.69-5.66-10.69-11.53v-69.71c0-5.87,4.58-10.92,10.43-11.5.56-.06.91-.12,1.25-.12m-3.56-23.01c-17.54,1.74-31.37,16.62-31.37,34.62v69.71c0,18.01,13.83,32.88,31.37,34.62,1.05.12,2.32.23,3.49.23h69.71s50.54,43.69,50.54,43.69c2.09,1.86,4.76,2.79,7.55,2.79,1.63,0,3.25-.35,4.88-1.05,4.07-1.86,6.74-6.04,6.74-10.57v-34.86c19.17,0,34.86-15.69,34.86-34.86v-69.71c0-19.17-15.69-34.86-34.86-34.86H106.25c-1.16,0-2.44.12-3.49.23Z"/>
  <path class="cls-1" d="m259.8,141.59l-21.79,11.76h7.31c4.47,0,8.24,3.77,8.24,8.24v49.45c0,4.47-3.77,8.24-8.24,8.24h-16.48v23.19l-22.18-19.18-4.64-4.01h-55.58l-.66-.07c-4.33-.43-7.58-4.01-7.58-8.17v-24.71h-16.48v24.71c0,12.77,9.81,23.32,22.25,24.56.74.08,1.65.16,2.47.16h49.45l35.85,30.99c1.48,1.32,3.38,1.98,5.36,1.98,1.15,0,2.31-.25,3.46-.74,2.88-1.32,4.78-4.29,4.78-7.5v-24.72c13.6,0,24.72-11.13,24.72-24.72v-49.45c0-8.2-4.05-15.49-10.24-20Z"/>
  <path class="cls-1" d="m204.42,175.11c-4.58-4.58-13.95-15.34-13.95-15.34v8.17c0,5.4-4.21,10.05-9.83,10.6l-.85.09h-72.09l-6.02,5.2-28.77,24.87v-30.08h-21.38c-5.79,0-10.69-4.89-10.69-10.69v-64.13c0-5.79,4.89-10.69,10.69-10.69h29.77v-14.29l1.15-7.09h-30.91c-17.63,0-32.06,14.43-32.06,32.06v64.13c0,17.63,14.43,32.06,32.06,32.06v32.06c0,4.17,2.46,8.02,6.2,9.73,1.5.64,2.99.96,4.49.96,2.57,0,5.02-.86,6.95-2.57l46.49-40.19h64.13c1.07,0,2.24-.11,3.21-.21,11.87-1.18,21.89-8.89,26.36-19.48-1.84-1.99-3.6-3.87-4.93-5.19Z"/>
</svg>