<?xml version="1.0" encoding="UTF-8"?>
<svg id="Layer_1" data-name="Layer 1" xmlns="http://www.w3.org/2000/svg" viewBox="0 0 300 300">
  <defs>
    <style>
      .cls-1, .cls-2 {
        fill: #fff;
        stroke-width: 0px;
      }

      .cls-2 {
        fill-rule: evenodd;
      }
    </style>
  </defs>
  <path class="cls-2" d="m150,231.82c45.19,0,81.82-36.63,81.82-81.82s-36.63-81.82-81.82-81.82-81.82,36.63-81.82,81.82,36.63,81.82,81.82,81.82Zm0-27.27c30.12,0,54.55-24.42,54.55-54.55s-24.42-54.55-54.55-54.55-54.55,24.42-54.55,54.55,24.42,54.55,54.55,54.55Z"/>
  <path class="cls-1" d="m231.82,54.55c-7.53,0-13.64,6.11-13.64,13.64s6.11,13.64,13.64,13.64,13.64-6.11,13.64-13.64-6.11-13.64-13.64-13.64Z"/>
  <path class="cls-2" d="m8.92,44.67C0,62.18,0,85.09,0,130.91v38.18c0,45.82,0,68.73,8.92,86.24,7.84,15.4,20.36,27.91,35.76,35.76,17.5,8.92,40.41,8.92,86.24,8.92h38.18c45.82,0,68.73,0,86.24-8.92,15.4-7.84,27.91-20.36,35.76-35.76,8.92-17.5,8.92-40.41,8.92-86.24v-38.18c0-45.82,0-68.73-8.92-86.24-7.84-15.4-20.36-27.91-35.76-35.76C237.83,0,214.91,0,169.09,0h-38.18C85.09,0,62.18,0,44.67,8.92c-15.4,7.84-27.91,20.36-35.76,35.76Zm160.17-17.4h-38.18c-23.36,0-39.24.02-51.52,1.02-11.96.98-18.07,2.75-22.34,4.92-10.26,5.23-18.61,13.57-23.84,23.84-2.17,4.27-3.94,10.38-4.92,22.34-1,12.28-1.02,28.16-1.02,51.52v38.18c0,23.36.02,39.24,1.02,51.52.98,11.96,2.75,18.07,4.92,22.34,5.23,10.26,13.57,18.61,23.84,23.84,4.27,2.17,10.38,3.95,22.34,4.92,12.28,1,28.16,1.02,51.52,1.02h38.18c23.36,0,39.24-.02,51.52-1.02,11.96-.98,18.07-2.75,22.34-4.92,10.26-5.23,18.61-13.57,23.84-23.84,2.17-4.27,3.95-10.38,4.92-22.34,1-12.28,1.02-28.16,1.02-51.52v-38.18c0-23.36-.02-39.24-1.02-51.52-.98-11.96-2.75-18.07-4.92-22.34-5.23-10.26-13.57-18.61-23.84-23.84-4.27-2.17-10.38-3.94-22.34-4.92-12.28-1-28.16-1.02-51.52-1.02Z"/>
</svg>