<?xml version="1.0" encoding="UTF-8"?>
<svg id="Layer_1" data-name="Layer 1" xmlns="http://www.w3.org/2000/svg" viewBox="0 0 300 300">
  <defs>
    <style>
      .cls-1 {
        fill: #85b989;
        stroke-width: 0px;
      }
    </style>
  </defs>
  <path class="cls-1" d="m232.14,236.65c3.03-7,4.68-14.5,4.68-22.31,0-37.96-38.87-68.74-86.82-68.74s-86.82,30.78-86.82,68.74c0,8.36,1.89,16.38,5.34,23.79,38.09,13.33,95.95,22.88,163.61-1.48Z"/>
  <circle class="cls-1" cx="150" cy="95.74" r="47.42"/>
  <path class="cls-1" d="m288.45,199.58c1.76-4.07,2.72-8.44,2.72-12.99,0-22.1-22.63-40.01-50.53-40.01s-50.53,17.91-50.53,40.01c0,4.87,1.1,9.53,3.11,13.85,22.17,7.76,55.85,13.32,95.24-.86Z"/>
  <circle class="cls-1" cx="240.64" cy="117.56" r="27.6"/>
  <path class="cls-1" d="m107.18,199.58c1.76-4.07,2.72-8.44,2.72-12.99,0-22.1-22.63-40.01-50.53-40.01s-50.53,17.91-50.53,40.01c0,4.87,1.1,9.53,3.11,13.85,22.17,7.76,55.85,13.32,95.24-.86Z"/>
  <circle class="cls-1" cx="59.36" cy="117.56" r="27.6"/>
</svg>