<?xml version="1.0" encoding="UTF-8"?>
<svg id="Layer_1" data-name="Layer 1" xmlns="http://www.w3.org/2000/svg" viewBox="0 0 268.38 268.38">
  <defs>
    <style>
      .cls-1 {
        fill: #bad539;
        stroke-width: 0px;
      }
    </style>
  </defs>
  <path class="cls-1" d="m84.79,117.44l.34-27.59h-.23l-6.76,27.59h-6.42l-6.53-27.59h-.17l.28,27.59h-8.23v-40.2h11.47l6.47,25.89h.23l6.3-25.89h12.15v40.2h-8.91Z"/>
  <path class="cls-1" d="m113.29,118.52c-9.54,0-15.44-8.52-15.44-21.29s5.79-21.06,15.44-21.06,15.44,8.35,15.44,21.06-5.91,21.29-15.44,21.29Zm0-33.56c-4.14,0-6.13,5.28-6.13,12.26s1.99,12.38,6.13,12.38,6.13-5.39,6.13-12.38-2.04-12.26-6.13-12.26Z"/>
  <path class="cls-1" d="m150.26,117.44l-9.31-24.47h-.17l.23,24.47h-8.12v-40.2h9.99l9.25,24.81h.17l-.17-24.81h7.84v40.2h-9.71Z"/>
  <path class="cls-1" d="m165.76,117.44v-40.2h19.42v8.01h-10.73v7.89h9.88v7.49h-9.88v8.69h11.41v8.12h-20.1Z"/>
  <path class="cls-1" d="m204.65,102.96v14.48h-8.91v-14.48l-10.16-25.72h9.82l4.83,16.64h.11l4.88-16.64h9.65l-10.22,25.72Z"/>
  <path class="cls-1" d="m53.51,124.54v-2.84h157.96v2.84H53.51Z"/>
  <path class="cls-1" d="m86.15,185.57h-13.34v-40.2h12.04c5,0,11.87,1.65,11.87,10.33,0,4.71-2.21,7.5-5,8.8v.11c3.07.79,6.36,3.86,6.36,9.48,0,8.57-6.19,11.47-11.92,11.47Zm-1.82-32.65h-3.07v8.69h3.12c2.21,0,4.31-1.25,4.31-4.43s-2.04-4.26-4.37-4.26Zm.23,15.33h-3.29v9.77h3.41c2.67,0,4.77-1.59,4.77-4.77,0-3.58-2.56-5-4.88-5Z"/>
  <path class="cls-1" d="m116.13,186.65c-9.54,0-15.44-8.52-15.44-21.29s5.79-21.06,15.44-21.06,15.44,8.35,15.44,21.06-5.91,21.29-15.44,21.29Zm0-33.56c-4.14,0-6.13,5.28-6.13,12.26s1.99,12.38,6.13,12.38,6.13-5.39,6.13-12.38-2.04-12.26-6.13-12.26Z"/>
  <path class="cls-1" d="m149.52,186.65c-9.54,0-15.44-8.52-15.44-21.29s5.79-21.06,15.44-21.06,15.44,8.35,15.44,21.06-5.91,21.29-15.44,21.29Zm0-33.56c-4.14,0-6.13,5.28-6.13,12.26s1.99,12.38,6.13,12.38,6.13-5.39,6.13-12.38-2.04-12.26-6.13-12.26Z"/>
  <path class="cls-1" d="m186.99,185.57l-8.57-18.68h-.17v18.68h-9.14v-40.2h9.14v16.75h.17l8.29-16.75h10.16l-10.33,18.4,10.96,21.8h-10.5Z"/>
  <path class="cls-1" d="m69.23,192.67v-2.84h126.51v2.84h-126.51Z"/>
</svg>