<?xml version="1.0" encoding="UTF-8"?>
<svg id="Layer_1" data-name="Layer 1" xmlns="http://www.w3.org/2000/svg" viewBox="0 0 300 300">
  <defs>
    <style>
      .cls-1 {
        fill: #85b989;
        stroke-width: 0px;
      }
    </style>
  </defs>
  <path class="cls-1" d="m269.62,282.91c-3.4,0-6.79-1.29-9.38-3.88l-60.33-60.15c-19.83,15.66-44.19,24.16-69.84,24.16-30.18,0-58.55-11.75-79.89-33.09-21.34-21.34-33.09-49.71-33.09-79.89s11.75-58.55,33.09-79.89c21.34-21.34,49.71-33.09,79.89-33.09s58.55,11.75,79.89,33.09c21.34,21.34,33.09,49.71,33.09,79.89,0,25.75-8.55,50.17-24.32,70.05l60.28,60.1c5.2,5.18,5.21,13.6.03,18.8-2.6,2.6-6,3.91-9.41,3.91ZM130.06,43.67c-47.64,0-86.39,38.76-86.39,86.39s38.76,86.39,86.39,86.39,86.39-38.76,86.39-86.39-38.76-86.39-86.39-86.39Z"/>
</svg>