<?xml version="1.0" encoding="UTF-8"?>
<svg id="Layer_1" data-name="Layer 1" xmlns="http://www.w3.org/2000/svg" viewBox="0 0 300 300">
  <defs>
    <style>
      .cls-1 {
        fill: #85b989;
        stroke-width: 0px;
      }
    </style>
  </defs>
  <g id="color">
    <circle class="cls-1" cx="250.21" cy="125.8" r="21.97"/>
    <path class="cls-1" d="m217.3,20.7l-56.39,74.02-122.64,29.72c-7.06,1.73-11.4,8.85-9.71,15.92l17.28,71.3c1.73,7.06,8.85,11.4,15.92,9.71l122.64-29.72,83.79,39.06L217.3,20.7Z"/>
    <line class="cls-1" x1="65.22" y1="120.67" x2="87.21" y2="211.44"/>
    <polygon class="cls-1" points="64.1 117.23 32.36 126.89 27.81 136.64 46.4 214.36 58.04 222.65 87.13 215.35 64.1 117.23"/>
    <path class="cls-1" d="m126.86,207.09l12.72,52.51c1.56,6.44-1.95,12.83-7.83,14.25l-21.32,5.17c-5.89,1.43-11.93-2.64-13.49-9.09l-12.72-52.51"/>
  </g>
</svg>