<?xml version="1.0" encoding="UTF-8"?>
<svg id="Layer_1" data-name="Layer 1" xmlns="http://www.w3.org/2000/svg" viewBox="0 0 300 300">
  <defs>
    <style>
      .cls-1 {
        fill: #85b989;
        stroke-width: 0px;
      }
    </style>
  </defs>
  <path class="cls-1" d="m48.11,119.01c-5.08,0-9.35.62-12.9,1.56,14.61,49.03,44.95,105.31,105.9,155.02.37-1.26.96-2.53,1.75-3.78,5.7-9.03,4.51-18.88,5.35-28.74,1.93-22.74,4.81-45.4,7.81-68.04.3-2.31,1.2-4.54,2.16-6.58,1.37-2.9,5.03-4.51,8.13-3.73,8.26,2.08,15.98,3.67,22.92,6.92,10.34,4.85,21.32,10.2,29.1,18.19,12.65,12.97,21.96,12.56,34.82,1.06,14.82-13.24,14.39-15.47,4.81-33.14-8.72-16.07-14.12-34.05-27.69-47.32-1.41-1.38-2.57-3.66-2.72-5.61-.86-11.64-5.07-21.29-14.48-28.77-1.76-1.4-1.7-5.64-1.74-8.57-.15-11.36-.1-22.73-.08-35.57,0-3.21-1.67-3.83-3.75-1.38-2.14,2.55-4.22,5-6.32,7.49-2.06,2.45-4.41,1.92-5.23-1.18-.17-.67-.36-1.33-.53-2.01-.82-3.1-2.02-4.17-2.67-2.38-.64,1.79-2.72,1.76-4.62-.05-1.91-1.81-3.1-1.6-2.7.46.41,2.07.4,3.88-.03,4.04s-1.48-1.51-2.33-3.74c-.52-1.36-.98-2.73-1.21-4.14-.92-5.47-3.39-5.74-7.27-2.74-.71.55-1.33,1.21-2.02,1.81-4.76,4.14-9.13,6.92-16.61,5.53-9.06-1.68-18.46-1.58-27.8-1.8-3.21-.08-5.93.58-6.06,1.53-.14.96,1.42,2.21,3.49,2.8,2.06.59,3.74,2.63,3.74,3.09s-2.59,2.02-5.8,2.02h-1.63c-3.21,0-5.48-.93-5.1-.56.21.21.45-.14.67.12.4.45.76.64,1.13,1.17.59.83-.4,2.73-2.23,4.43-1.82,1.7-1.46,3.15.82,3.34,2.28.19,4.16.84,4.21,1.49.05.65-2.52,1.32-5.71,1.52-6.97.43-13.94.85-20.92,1.28-3.21.2-5.81.71-5.82,1.16,0,.44,2.53,1.34,5.67,2.01,1.75.37,3.52.75,5.27,1.12,3.14.67,5.65,1.8,5.62,2.52-.03.72-2.67,1.3-5.83,1.85-6.47,1.12-12.97,3.68-19.63,4.77-3.17.52-4.46,2.73-2.63,5.37.43.63.87,1.27,1.3,1.91,1.8,2.66.29,5.39-2.9,4.99-3.64-.45-8.16-1.31-11.89-1.66-3.2-.3-3.37,1.39-1.16,3.72,10.89,11.5,7.36,37.19-14.66,37.19Z"/>
</svg>