<?xml version="1.0" encoding="UTF-8"?>
<svg id="Layer_1" data-name="Layer 1" xmlns="http://www.w3.org/2000/svg" viewBox="0 0 300 300">
  <defs>
    <style>
      .cls-1 {
        fill: #85b989;
        stroke-width: 0px;
      }

      .cls-2 {
        fill: none;
        stroke: #85b989;
        stroke-miterlimit: 10;
        stroke-width: 20px;
      }
    </style>
  </defs>
  <ellipse class="cls-2" cx="200.76" cy="150" rx="87.3" ry="87.53"/>
  <path class="cls-1" d="m124.05,92.1c9.25-12.33,21.37-22.39,35.37-29.18h-86.15v.09c-7.31.79-13,6.98-13,14.5s5.69,13.71,13,14.5v.09h50.78Z"/>
  <path class="cls-1" d="m127.27,212.41H24.5c-6.94,0-12.56,5.62-12.56,12.56s5.62,12.56,12.56,12.56h134.93c-12.43-6.03-23.38-14.63-32.15-25.12Z"/>
  <path class="cls-1" d="m108.28,176.4h-28.8c-7.54,0-13.66,6.11-13.66,13.66s6.11,13.66,13.66,13.66h41.3c-5.5-8.3-9.76-17.49-12.5-27.31Z"/>
  <path class="cls-1" d="m119.74,98.35H31.01c-7.5,0-13.59,6.08-13.59,13.59s6.08,13.59,13.59,13.59h76.87c2.56-9.74,6.59-18.88,11.85-27.17Z"/>
  <path class="cls-1" d="m200.76,83.53c-36.71,0-66.47,29.76-66.47,66.47s29.76,66.47,66.47,66.47,66.47-29.76,66.47-66.47-29.76-66.47-66.47-66.47Zm0,21.98c6.03,0,11.77,1.21,17.02,3.39l-11.14,19.3c-1.87-.51-3.84-.78-5.87-.78s-4,.27-5.87.78l-11.14-19.3c5.25-2.18,10.99-3.39,17.02-3.39Zm10.95,44.49c0,6.04-4.91,10.95-10.95,10.95s-10.95-4.91-10.95-10.95,4.91-10.95,10.95-10.95,10.95,4.91,10.95,10.95Zm-38.03-35.27l11.14,19.29c-2.78,2.77-4.84,6.26-5.88,10.17h-22.28c1.57-11.96,7.9-22.43,17.02-29.45Zm-17.02,41.08h22.28c1.04,3.9,3.1,7.39,5.88,10.17l-11.14,19.29c-9.13-7.02-15.46-17.5-17.02-29.46Zm44.1,38.68c-6.02,0-11.77-1.21-17.02-3.39l11.14-19.3c1.87.51,3.84.78,5.87.78s4-.27,5.87-.78l11.14,19.3c-5.25,2.18-10.99,3.39-17.02,3.39Zm27.07-9.22l-11.14-19.29c2.78-2.77,4.84-6.26,5.88-10.17h22.28c-1.57,11.96-7.9,22.43-17.02,29.46Zm-5.26-41.08c-1.04-3.9-3.1-7.39-5.88-10.17l11.14-19.29c9.13,7.02,15.45,17.5,17.02,29.45h-22.28Z"/>
</svg>