<?xml version="1.0" encoding="UTF-8"?>
<svg id="Layer_1" data-name="Layer 1" xmlns="http://www.w3.org/2000/svg" viewBox="0 0 300 300">
  <defs>
    <style>
      .cls-1 {
        fill: #85b989;
        stroke-width: 0px;
      }
    </style>
  </defs>
  <path class="cls-1" d="m150.46,63.47c7.69-.26,13.7-6.71,13.44-14.4-.26-7.69-6.71-13.71-14.4-13.44l.96,27.84Zm-84.82,78.39l-13.92.43c0,.16.01.33.02.49l13.9-.92Zm-23.77,63.45l9.09,10.55c.25-.21.49-.44.72-.67l-9.82-9.88Zm-8.15,6.74l8.18,11.27c.23-.17.45-.34.67-.52l-8.86-10.75Zm80.05,44.72c7.69,0,13.93-6.24,13.93-13.93s-6.24-13.93-13.93-13.93v27.86Zm36.69-221.14c-7.69-.26-14.13,5.75-14.4,13.44-.26,7.69,5.75,14.13,13.44,14.4l.96-27.84Zm83.86,106.23l13.9.92c.01-.16.02-.32.02-.49l-13.92-.43Zm23.77,63.44l-9.82,9.88c.23.23.48.45.72.67l9.09-10.55Zm8.15,6.74l-8.86,10.75c.22.18.43.35.66.51l8.2-11.26Zm-80.05,16.88c-7.69,0-13.93,6.24-13.93,13.93s6.24,13.93,13.93,13.93v-27.86Zm-50.14-179.37c0,7.69,6.24,13.93,13.93,13.93s13.93-6.24,13.93-13.93h-27.86Zm27.86-29.55c0-7.69-6.24-13.93-13.93-13.93s-13.93,6.24-13.93,13.93h27.86Zm-50.14,208.91c-7.69,0-13.93,6.24-13.93,13.93s6.24,13.93,13.93,13.93v-27.86Zm72.42,27.86c7.69,0,13.93-6.24,13.93-13.93s-6.24-13.93-13.93-13.93v27.86Zm-58.5-13.93c0-7.69-6.24-13.93-13.93-13.93s-13.93,6.24-13.93,13.93h27.86Zm72.42,0c0-7.69-6.24-13.93-13.93-13.93s-13.93,6.24-13.93,13.93h27.86Zm-50.62-207.22c-56.12,1.93-99.52,49.96-97.78,106.66l27.84-.85c-1.29-42.02,30.77-76.59,70.9-77.97l-.96-27.84Zm-97.76,107.15c1.3,19.75-5.95,39-19.69,52.66l19.63,19.76c19.54-19.42,29.68-46.58,27.85-74.25l-27.79,1.83Zm-18.97,51.99c-2.91,2.51-5.36,4.44-7.91,6.54l17.71,21.5c2.04-1.68,5.17-4.17,8.38-6.94l-18.18-21.1Zm-7.24,6.02c-4.07,2.96-7.77,7.18-10.53,11.64-2.72,4.4-5.33,10.33-5.66,16.88-.37,7.17,2.1,15.14,9.44,20.75,6.56,5.02,15.21,6.71,24.37,6.71v-27.86c-3.03,0-5.04-.3-6.27-.61-1.22-.31-1.44-.58-1.17-.38.34.26.85.82,1.18,1.61.3.73.28,1.2.28,1.18,0-.05.04-.44.3-1.18.26-.71.67-1.56,1.23-2.47.56-.9,1.19-1.74,1.82-2.44.65-.72,1.15-1.14,1.39-1.31l-16.36-22.54Zm17.61,55.99h70.61v-27.86H43.16v27.86ZM149.5,63.47c40.13,1.38,72.18,35.94,70.9,77.97l27.84.85c1.74-56.69-41.66-104.73-97.78-106.66l-.96,27.84Zm70.92,77.48c-1.82,27.66,8.32,54.82,27.85,74.23l19.63-19.76c-13.74-13.65-20.99-32.9-19.69-52.64l-27.79-1.83Zm28.58,74.9c3.21,2.77,6.34,5.26,8.38,6.94l17.71-21.5c-2.56-2.1-5-4.03-7.91-6.54l-18.18,21.1Zm9.04,7.45c.25.18.76.61,1.41,1.34.63.71,1.27,1.55,1.83,2.45.56.91.98,1.76,1.24,2.48.27.74.31,1.13.31,1.18,0,.02-.03-.46.28-1.19.33-.81.84-1.36,1.19-1.63.26-.2.05.06-1.18.38-1.24.32-3.25.61-6.3.61v27.86c9.16,0,17.82-1.69,24.39-6.71,7.35-5.62,9.81-13.61,9.43-20.78-.35-6.56-2.97-12.48-5.7-16.88-2.76-4.45-6.46-8.67-10.52-11.62l-16.39,22.52Zm-1.22,5.62h-70.63v27.86h70.63v-27.86ZM163.91,49.55v-29.55h-27.86v29.55h27.86Zm-50.14,207.22h72.42v-27.86h-72.42v27.86Zm-13.93-13.93c0,27.87,22.12,51.07,50.14,51.07v-27.86c-11.98,0-22.28-10.06-22.28-23.21h-27.86Zm50.14,51.07c28.02,0,50.14-23.2,50.14-51.07h-27.86c0,13.16-10.31,23.21-22.28,23.21v27.86Z"/>
</svg>