<?xml version="1.0" encoding="UTF-8"?>
<svg id="Layer_1" data-name="Layer 1" xmlns="http://www.w3.org/2000/svg" viewBox="0 0 300 300">
  <defs>
    <style>
      .cls-1 {
        fill: #85b989;
        stroke-width: 0px;
      }
    </style>
  </defs>
  <rect class="cls-1" x="9.3" y="204.05" width="228.61" height="49.58" rx="15.8" ry="15.8"/>
  <path class="cls-1" d="m185.16,46.38H62.05c-9.93,0-17.98,8.05-17.98,17.98v123.29c0,4.97,4.02,8.99,8.99,8.99h141.09c4.97,0,8.99-4.02,8.99-8.99v-123.29c0-9.93-8.05-17.98-17.98-17.98Zm-90.36,116.95c0,6.08-4.93,11.02-11.02,11.02h-2.98c-6.08,0-11.02-4.93-11.02-11.02v-51.19c0-6.08,4.93-11.02,11.02-11.02h2.98c6.08,0,11.02,4.93,11.02,11.02v51.19Zm41.32,0c0,6.08-4.93,11.02-11.02,11.02h-2.98c-6.08,0-11.02-4.93-11.02-11.02v-51.19c0-6.08,4.93-11.02,11.02-11.02h2.98c6.08,0,11.02,4.93,11.02,11.02v51.19Zm41.32,0c0,6.08-4.93,11.02-11.02,11.02h-2.98c-6.08,0-11.02-4.93-11.02-11.02v-51.19c0-6.08,4.93-11.02,11.02-11.02h2.98c6.08,0,11.02,4.93,11.02,11.02v51.19Z"/>
  <rect class="cls-1" x="223.78" y="124.42" width="65.19" height="26.63" rx="4.47" ry="4.47" transform="translate(394.1 -118.64) rotate(90)"/>
  <rect class="cls-1" x="222.04" y="83.5" width="68.66" height="26.63" rx="4.47" ry="4.47" transform="translate(512.74 193.63) rotate(180)"/>
  <rect class="cls-1" x="186.84" y="143.7" width="65.19" height="26.63" rx="4.47" ry="4.47" transform="translate(438.87 314.02) rotate(180)"/>
</svg>