<?xml version="1.0" encoding="UTF-8"?>
<svg id="Layer_1" data-name="Layer 1" xmlns="http://www.w3.org/2000/svg" viewBox="0 0 300 300">
  <defs>
    <style>
      .cls-1 {
        fill: #85b989;
        stroke-width: 0px;
      }
    </style>
  </defs>
  <path class="cls-1" d="m150,254.15c-57.43,0-104.15-46.72-104.15-104.15s46.72-104.15,104.15-104.15,104.15,46.72,104.15,104.15-46.72,104.15-104.15,104.15Zm0-184.66c-44.4,0-80.51,36.12-80.51,80.52s36.12,80.51,80.51,80.51,80.51-36.12,80.51-80.51-36.12-80.52-80.51-80.52Z"/>
  <path class="cls-1" d="m212.96,217.97c-20.55,0-36.64-29.86-36.64-67.97s16.09-67.97,36.64-67.97,36.64,29.86,36.64,67.97-16.09,67.97-36.64,67.97Zm0-124.12c-11.74,0-24.82,23.06-24.82,56.15s13.08,56.15,24.82,56.15,24.82-23.06,24.82-56.15-13.08-56.15-24.82-56.15Z"/>
  <path class="cls-1" d="m94.63,217.97c-20.55,0-36.64-29.86-36.64-67.97s16.09-67.97,36.64-67.97,36.64,29.86,36.64,67.97-16.09,67.97-36.64,67.97Zm0-124.12c-11.74,0-24.82,23.06-24.82,56.15s13.08,56.15,24.82,56.15,24.82-23.06,24.82-56.15-13.08-56.15-24.82-56.15Z"/>
  <path class="cls-1" d="m150,15.81C76.01,15.81,15.81,76.01,15.81,150s60.2,134.19,134.19,134.19,134.19-60.2,134.19-134.19S223.99,15.81,150,15.81Zm0,245.46c-61.35,0-111.27-49.91-111.27-111.27s49.91-111.27,111.27-111.27,111.27,49.92,111.27,111.27-49.91,111.27-111.27,111.27Z"/>
</svg>