<?xml version="1.0" encoding="UTF-8"?>
<svg id="Layer_1" data-name="Layer 1" xmlns="http://www.w3.org/2000/svg" viewBox="0 0 300 300">
  <defs>
    <style>
      .cls-1 {
        fill: #85b989;
        stroke-width: 0px;
      }
    </style>
  </defs>
  <path class="cls-1" d="m258.3,269.86H41.7c-5.2,0-9.43-4.23-9.43-9.43V43.84c0-5.2,4.23-9.43,9.43-9.43h216.59c5.2,0,9.43,4.23,9.43,9.43v216.59c0,5.2-4.23,9.43-9.43,9.43Zm-214.63-11.39h212.68V45.8H43.66v212.68Z"/>
  <path class="cls-1" d="m221.96,230.68H78.04c-3.63,0-6.58-2.95-6.58-6.58V80.18c0-3.63,2.95-6.58,6.58-6.58h143.92c3.63,0,6.58,2.95,6.58,6.58v143.92c0,3.63-2.95,6.58-6.58,6.58ZM78.04,79.29c-.49,0-.89.4-.89.89v143.92c0,.49.4.89.89.89h143.92c.49,0,.89-.4.89-.89V80.18c0-.49-.4-.89-.89-.89H78.04Z"/>
  <rect class="cls-1" x="147.15" y="186.31" width="5.69" height="77.86"/>
  <rect class="cls-1" x="147.15" y="40.1" width="5.69" height="77.86"/>
  <rect class="cls-1" x="37.97" y="147.15" width="80.74" height="5.69"/>
  <rect class="cls-1" x="179.27" y="147.15" width="80.74" height="5.69"/>
  <path class="cls-1" d="m150,100.34c-28.61,0-51.8,23.19-51.8,51.8s23.19,51.8,51.8,51.8,51.8-23.19,51.8-51.8-23.19-51.8-51.8-51.8Zm18.92,72.3c0,2.07-1.68,3.75-3.75,3.75h-30.34c-2.07,0-3.75-1.68-3.75-3.75v-41c0-2.07,1.68-3.75,3.75-3.75h30.34c2.07,0,3.75,1.68,3.75,3.75v41Z"/>
  <circle class="cls-1" cx="225.7" cy="76.44" r="18.75"/>
  <circle class="cls-1" cx="225.7" cy="227.83" r="18.75"/>
  <circle class="cls-1" cx="74.3" cy="227.83" r="18.75"/>
  <circle class="cls-1" cx="74.3" cy="76.15" r="18.75"/>
  <circle class="cls-1" cx="150" cy="40.1" r="24.43"/>
  <circle class="cls-1" cx="150" cy="259.9" r="24.43"/>
  <circle class="cls-1" cx="262.03" cy="149.5" r="24.43"/>
  <circle class="cls-1" cx="37.97" cy="150" r="24.43"/>
</svg>