<?xml version="1.0" encoding="UTF-8"?>
<svg id="Layer_1" data-name="Layer 1" xmlns="http://www.w3.org/2000/svg" viewBox="0 0 300 300">
  <defs>
    <style>
      .cls-1 {
        fill: #85b989;
        stroke-width: 0px;
      }
    </style>
  </defs>
  <path class="cls-1" d="m265.37,136.24c-2.35-6.5-4.57-12.64-6.47-18.36-4.87-14.65-11.34-25.87-19.78-34.31-16.99-16.99-38.54-18.94-53.29-18.94l-71.54.04c-38.28.02-60.83,16.47-73.12,53.32-1.91,5.72-4.14,11.87-6.51,18.39-12.74,35.1-25.91,71.39-6.99,90.31.53.53,1.07,1.04,1.65,1.53,21.05,18,51.74-1.6,78.8-18.89,4.29-2.74,8.4-5.36,12.17-7.63,6.54-3.9,12.36-4.56,26.55-4.58h1.95s1.19,0,1.19,0h3.15c14.2,0,20.03.66,26.58,4.58,3.74,2.24,7.84,4.86,12.12,7.59,27.05,17.27,57.72,36.86,78.8,18.82,21.38-18.31,7.84-55.71-5.26-91.87h0Zm-5.1,79.51c-14.87,12.71-49.8-14.08-72.78-27.85-10.18-6.07-19.42-6.71-34.35-6.71-1.04,0-2.09,0-3.14,0s-2.1.01-3.14,0c-14.93.01-24.16.66-34.35,6.75-23,13.78-57.96,40.62-72.81,27.93-.27-.23-.53-.47-.77-.72-14.61-14.61,6.32-60.14,17.15-92.66,11.02-33.06,30.03-42.63,58.32-42.65,5.43,0,12.18,0,20.45,0,8.45,0,18.5-.01,30.4-.02,8.27,0,15.01,0,20.45,0,17.57,0,31.56,3.68,42.27,14.39,6.53,6.53,11.86,15.67,16.01,28.2,10.98,33.07,32.39,79.57,16.28,93.36h0Zm-88.26-77.56l11.06,11.06,11.06-11.06-11.06-11.06-11.06,11.06Zm16.59-16.59l11.06,11.06,11.06-11.06-11.06-11.06-11.06,11.06Zm16.59,16.59l11.06,11.06,11.06-11.06-11.06-11.06-11.06,11.06Zm-16.59,16.59l11.06,11.06,11.06-11.06-11.06-11.06-11.06,11.06Zm-75.54-9.11h8.42c4.15,0,7.51-3.36,7.51-7.51s-3.36-7.51-7.51-7.51h-8.42v-8.42c0-4.15-3.36-7.51-7.51-7.51s-7.51,3.36-7.51,7.51v8.42s-8.42,0-8.42,0c-4.15,0-7.51,3.36-7.51,7.51s3.36,7.51,7.51,7.51h8.42v8.66c0,4.15,3.36,7.51,7.51,7.51s7.51-3.36,7.51-7.51v-8.66Z"/>
</svg>