<?xml version="1.0" encoding="UTF-8"?>
<svg id="Layer_1" data-name="Layer 1" xmlns="http://www.w3.org/2000/svg" viewBox="0 0 137.11 125.02">
  <defs>
    <style>
      .cls-1 {
        fill: #666766;
        stroke-width: 0px;
      }
    </style>
  </defs>
  <polygon class="cls-1" points="48.47 99.78 68.56 72.49 88.64 99.78 107.22 125.02 130.18 125.02 99.2 82.94 68.22 40.85 37.24 82.94 6.27 125.02 29.89 125.02 48.47 99.78"/>
  <path class="cls-1" d="m121.44,100.77c1.95-2.09,4.9-5.59,5.91-7.57,3.4-6.68,3.26-13.96-.36-18.11L68.56,7.99,10.12,75.09c-3.61,4.15-3.76,11.43-.36,18.11.92,1.8,3.71,5.13,5.52,7.14l-4.56,5.35c-2.59-2.66-6.24-7.07-7.61-9.76-4.57-8.99-4.08-18.75,1.25-24.88L64.8,1.65c.91-1.05,2.28-1.65,3.75-1.65,1.48,0,2.84.6,3.76,1.65l60.43,69.39c5.33,6.13,5.83,15.89,1.25,24.88-1.39,2.73-5.18,7.35-8.02,10.16l-4.54-5.32Z"/>
  <polygon class="cls-1" points="68.28 125.02 52.11 125.02 60.19 108.85 68.28 92.68 76.36 108.85 84.45 125.02 68.28 125.02"/>
  <polygon class="cls-1" points="85.11 105.21 84.28 104.13 68.56 101.64 52.7 104.15 51.88 105.21 45.61 113.29 68.56 109.65 91.37 113.27 85.11 105.21"/>
</svg>