<?xml version="1.0" encoding="UTF-8"?>
<svg id="Layer_1" data-name="Layer 1" xmlns="http://www.w3.org/2000/svg" viewBox="0 0 447.95 144.92">
  <defs>
    <style>
      .cls-1 {
        fill: #fff;
      }

      .cls-1, .cls-2 {
        stroke-width: 0px;
      }

      .cls-2 {
        fill: #7ac369;
      }
    </style>
  </defs>
  <g>
    <polygon class="cls-2" points="115.99 115.28 136.07 88 156.16 115.28 174.74 140.52 197.69 140.52 166.72 98.44 135.74 56.35 104.76 98.44 73.78 140.52 97.41 140.52 115.99 115.28"/>
    <path class="cls-2" d="m188.96,116.27c1.95-2.09,4.9-5.59,5.91-7.56,3.4-6.68,3.26-13.96-.36-18.11l-58.43-67.1-58.43,67.1c-3.61,4.15-3.76,11.43-.36,18.11.92,1.8,3.71,5.13,5.52,7.14l-4.56,5.35c-2.59-2.66-6.24-7.07-7.61-9.76-4.57-8.99-4.08-18.75,1.25-24.88l60.43-69.4c.91-1.05,2.28-1.65,3.75-1.65,1.48,0,2.84.6,3.76,1.65l60.43,69.39c5.33,6.13,5.83,15.89,1.25,24.88-1.39,2.73-5.18,7.35-8.02,10.16l-4.54-5.32Z"/>
    <polygon class="cls-2" points="135.8 140.52 119.63 140.52 127.71 124.35 135.8 108.18 143.88 124.35 151.97 140.52 135.8 140.52"/>
    <polygon class="cls-2" points="152.63 120.71 151.79 119.64 136.07 117.14 120.21 119.66 119.4 120.71 113.13 128.8 136.07 125.15 158.88 128.77 152.63 120.71"/>
  </g>
  <path class="cls-1" d="m2.22,140.52v-6.32c0-4.29.72-8.14,2.17-11.56,1.44-3.41,3.26-6.49,5.44-9.22,2.18-2.69,4.57-5.08,7.17-7.17,2.59-2.09,5.06-3.97,7.4-5.65,2.46-1.72,4.58-3.37,6.38-4.95,1.79-1.58,3.39-3.11,4.8-4.59,1.44-1.56,2.49-3.21,3.13-4.95.64-1.74.97-3.77.97-6.12,0-2.85-.91-5.24-2.72-7.17s-4.48-2.9-7.99-2.9c-2.26,0-5.15.59-8.66,1.76s-6.94,3.02-10.3,5.56l-8.9-11.76c4.72-3.55,9.55-6.15,14.48-7.81,4.94-1.66,10.37-2.49,16.3-2.49,8.04,0,14.43,2.18,19.17,6.52,4.74,4.35,7.11,9.65,7.11,15.89,0,4.92-.6,8.86-1.78,11.82-1.19,2.97-2.78,5.66-4.77,8.08-1.95,2.46-4.21,4.71-6.79,6.76-2.58,2.05-5.25,4.03-8.02,5.94-1.87,1.33-3.68,2.64-5.41,3.95-1.74,1.31-3.27,2.58-4.59,3.83-1.33,1.29-2.38,2.54-3.16,3.75-.78,1.21-1.17,2.36-1.17,3.45h35.58v15.33H2.22Z"/>
  <g>
    <rect class="cls-1" x="297.25" y="123.44" width="70.71" height="17.08" rx="4.74" ry="4.74"/>
    <rect class="cls-1" x="297.25" y="88.56" width="70.71" height="17.08" rx="4.74" ry="4.74"/>
    <rect class="cls-1" x="297.25" y="53.68" width="70.71" height="17.08" rx="4.74" ry="4.74"/>
    <path class="cls-1" d="m438.58,103.88c-2.16-7.52-7.09-12.7-15.07-13.72-6.81-.87-13.73-.85-20.6-1.26-2.84-.17-5.75-.12-8.5-.74-5.51-1.24-7.73-6.48-6.14-11.92,1.37-4.66,4.53-5.99,8.63-6.04,9.92-.14,19.85-.09,29.77-.1.86,0,1.64,0,2.38,0h5.68c2.62,0,4.74-2.12,4.74-4.74v-6.62c0-1.85-1.07-3.43-2.61-4.21-.05-.03-.11-.06-.16-.09-.1-.05-.2-.08-.3-.12-.18-.07-.37-.13-.57-.18-.11-.03-.22-.04-.33-.06-.24-.04-.49-.06-.76-.08,0,0,0,0,0,0h0c-.18,0-.35-.03-.55-.03-2.25.01-4.5.02-6.74.03h-34.41c-1.03,0-2.03.16-2.97.43-2.14.35-4.32,1.21-6.15,2.29-10.28,6.04-15.01,18.83-12.58,28.06,3.46,13.11,14.15,21.56,28.25,21.08,5.55-.19,11.13-.1,16.68.14,5.11.22,8.67,4.01,8.7,8.78.03,5.45-3.69,9.18-9.64,9.24-5.51.05-11.02.06-16.54.06h-5.24c-2.04,0-4.07,0-6.11,0h-8.63c-.26,0-.53,0-.79,0h-2.42c-2.62,0-4.74,2.12-4.74,4.74v6.98c0,2.62,2.12,4.74,4.74,4.74h42.6c13.4.27,21.28-10.63,21.68-22.22.16-4.45-.05-10.07-1.3-14.42Z"/>
    <path class="cls-1" d="m288.04,53.68h-33.42c-.4,0-.78.04-1.16.09-7.8-.09-15.29,1.53-21.81,5.93-18.16,12.27-25.65,31.56-18.23,52.31,5.66,15.84,20.7,28.47,39.36,28.3.02,0,.05,0,.07,0,.57.12,1.16.18,1.76.18h33.42c2.62,0,4.74-2.12,4.74-4.74v-7.6c0-2.62-2.12-4.74-4.74-4.74h-8.06c-10.44-.28-20.9-.44-31.28-1.37-14.15-1.27-24.73-20.41-19.17-33.69,4.42-10.54,12.58-16.73,23.7-17.72.45.07.91.12,1.39.12h33.42c2.62,0,4.74-2.12,4.74-4.74v-7.6c0-2.62-2.12-4.74-4.74-4.74Z"/>
  </g>
</svg>