<svg width="138" height="167" viewBox="0 0 138 167" fill="none" xmlns="http://www.w3.org/2000/svg">
<path opacity="0.2" d="M83.5963 166.365C129.515 166.365 166.739 129.141 166.739 83.2227C166.739 37.3043 129.515 0.0800781 83.5963 0.0800781C37.6779 0.0800781 0.453613 37.3043 0.453613 83.2227C0.453613 129.141 37.6779 166.365 83.5963 166.365Z" fill="#0072FF"/>
<path fill-rule="evenodd" clip-rule="evenodd" d="M96.9979 47.0215L62.4778 121.596H61.1755C57.9696 121.596 54.9069 120.982 52.0875 119.896L86.8222 44.8492C90.4431 44.8634 93.878 45.6352 96.9979 47.0215ZM50.5132 119.239C41.74 115.195 35.6289 106.334 35.6289 96.0152C35.6289 81.8806 47.064 70.4329 61.1755 70.4329C61.1755 56.9128 71.6517 45.8795 84.9045 44.9363L50.5132 119.239ZM101.664 121.596H92.7332L116.262 70.7602C119.024 71.2032 121.629 72.0607 124.019 73.3041L101.664 121.596ZM78.9222 121.596H88.5969L112.283 70.4316C112.283 65.6438 110.952 61.1847 108.662 57.3545L78.9222 121.596ZM136.255 87.253C137.257 89.997 137.83 92.9411 137.83 96.0281C137.83 107.033 130.86 116.408 121.085 120.01L136.255 87.253ZM114.774 121.468L133.293 81.4791C131.776 79.2639 129.901 77.3345 127.783 75.7052L106.544 121.596H112.283C113.113 121.596 113.958 121.553 114.774 121.468ZM65.1111 121.596H75.5445L106.644 54.4104C104.583 51.8521 102.036 49.6941 99.1446 48.0791L65.1111 121.596Z" fill="#0072FF"/>
</svg>
