<svg width="167" height="167" viewBox="0 0 167 167" fill="none" xmlns="http://www.w3.org/2000/svg">
<path opacity="0.2" d="M83.1939 166.511C129.112 166.511 166.337 129.287 166.337 83.3688C166.337 37.4503 129.112 0.226105 83.1939 0.226105C37.2755 0.226105 0.051239 37.4503 0.051239 83.3688C0.051239 129.287 37.2755 166.511 83.1939 166.511Z" fill="#32A4BE"/>
<path opacity="0.2" d="M83.1939 166.511C129.112 166.511 166.337 129.287 166.337 83.3688C166.337 37.4503 129.112 0.226105 83.1939 0.226105C37.2755 0.226105 0.051239 37.4503 0.051239 83.3688C0.051239 129.287 37.2755 166.511 83.1939 166.511Z" fill="#C2A633"/>
<mask id="mask0_1_3316" style="mask-type:luminance" maskUnits="userSpaceOnUse" x="0" y="0" width="167" height="167">
<path d="M83.1939 166.511C129.112 166.511 166.337 129.287 166.337 83.3688C166.337 37.4503 129.112 0.226105 83.1939 0.226105C37.2755 0.226105 0.051239 37.4503 0.051239 83.3688C0.051239 129.287 37.2755 166.511 83.1939 166.511Z" fill="white"/>
</mask>
<g mask="url(#mask0_1_3316)">
<path fill-rule="evenodd" clip-rule="evenodd" d="M84.5693 50.0204H61.868L61.868 80.171H48.0181L48.0181 90.2212H61.868L61.868 120.372H84.5693C96.5518 120.372 99.1337 119.117 104.297 116.607C104.698 116.412 105.115 116.21 105.552 116C111.627 113.085 116.348 108.982 119.715 103.689C123.082 98.3954 124.765 92.2313 124.765 85.1961C124.765 78.1609 123.082 71.9969 119.715 66.7037C116.348 61.4106 111.627 57.3068 105.552 54.3922C99.4779 51.4777 92.4836 50.0204 84.5693 50.0204ZM78.7378 90.2212V107.005H83.7362C91.0257 107.005 96.8398 105.045 101.179 101.126C105.518 97.2061 107.687 91.8963 107.687 85.1961C107.687 78.496 105.518 73.1862 101.179 69.2666C96.8398 65.347 91.0257 63.3872 83.7362 63.3872H78.7378V80.171H94.8786V90.2212H78.7378Z" fill="#C2A633"/>
</g>
</svg>
