<svg width="167" height="168" viewBox="0 0 167 168" fill="none" xmlns="http://www.w3.org/2000/svg">
<path opacity="0.2" fill-rule="evenodd" clip-rule="evenodd" d="M83.269 167.15C129.187 167.15 166.412 129.926 166.412 84.0073C166.412 38.0889 129.187 0.864624 83.269 0.864624C37.3505 0.864624 0.126312 38.0889 0.126312 84.0073C0.126312 129.926 37.3505 167.15 83.269 167.15Z" fill="#165098"/>
<path fill-rule="evenodd" clip-rule="evenodd" d="M39.3045 58.2466C41.1584 52.6585 45.7185 48.077 50.1365 44.3596C51.1305 43.6383 51.8405 43.9315 51.6906 44.7797C51.6196 45.5683 51.4776 46.3194 51.3356 47.0704C51.1936 47.8214 51.0516 48.5724 50.9806 49.3611C50.6966 51.5092 50.6966 53.5145 50.8386 55.6626C50.9806 58.3813 51.5565 60.9574 52.5506 63.3908C53.5446 65.6815 54.6886 67.9722 55.8246 70.1203C58.6806 76.1364 61.5286 82.1446 64.2346 88.1607C64.5371 88.8692 64.8396 89.5694 65.1402 90.2651C66.1173 92.5268 67.0738 94.7408 67.9426 97.0382C69.0787 100.185 69.6467 103.197 68.6526 106.486C66.6566 113.073 61.2446 117.94 56.2586 122.236C56.1303 122.344 55.9665 122.493 55.7826 122.661C54.7451 123.608 53.07 125.138 53.5525 122.95C53.8708 121.216 54.3047 119.512 54.7378 117.812C55.2711 115.719 55.8031 113.63 56.1165 111.496C56.7446 106.679 54.4775 101.645 52.4659 97.1786C52.2035 96.5958 51.9453 96.0226 51.6985 95.4609C50.0307 91.6698 48.201 87.9841 46.3757 84.3073C45.2395 82.0187 44.1051 79.7334 43.0124 77.4284C40.1565 71.5629 37.1665 64.8334 39.3045 58.2466ZM104.557 58.2466C106.411 52.6664 110.971 48.085 115.389 44.3596C116.391 43.6383 117.101 43.9316 116.951 44.7876C116.88 45.5763 116.738 46.3273 116.596 47.0784C116.454 47.8294 116.312 48.5804 116.241 49.3691C115.957 51.5171 115.957 53.5225 116.099 55.6705C116.241 58.3893 116.817 60.9653 117.811 63.3987C118.805 65.6895 119.949 67.9802 121.085 70.1282C123.941 76.1443 126.789 82.1525 129.495 88.1686C129.797 88.8771 130.1 89.5773 130.4 90.2729C131.377 92.5347 132.334 94.7487 133.203 97.0462C134.339 100.193 134.907 103.205 133.913 106.494C131.917 113.081 126.505 117.948 121.519 122.244C121.39 122.351 121.227 122.501 121.043 122.669C120.005 123.616 118.33 125.146 118.813 122.957C119.131 121.224 119.565 119.52 119.998 117.82C120.531 115.727 121.063 113.638 121.377 111.504C122.005 106.687 119.738 101.653 117.726 97.1865C117.464 96.6037 117.205 96.0306 116.959 95.4688C115.301 91.6966 113.481 88.0345 111.665 84.3803C110.516 82.0684 109.368 79.7597 108.265 77.4284C105.409 71.5629 102.419 64.8334 104.557 58.2466Z" fill="#165098"/>
<path fill-rule="evenodd" clip-rule="evenodd" d="M81.7648 33.4767C76.7787 37.6301 71.3667 42.6395 68.3687 48.5051C66.2307 52.6585 65.9467 56.9546 67.0828 61.2427C68.5107 66.3949 70.4988 71.547 72.6368 76.5565C76.7708 86.1474 82.1829 95.1676 86.1749 104.901C87.6028 108.333 89.1649 112.201 89.4489 116.069C89.7329 120.794 88.163 125.803 86.8849 130.242C86.6009 131.534 85.7488 133.246 85.8909 134.538C86.0329 135.537 86.6009 135.109 87.1768 134.681C89.5988 132.818 92.0208 130.67 94.1588 128.522C99.9969 122.942 106.695 115.491 106.127 106.764C105.843 103.181 104.131 99.749 102.711 96.4596C101.141 92.5995 99.4368 88.882 97.7248 85.1566C94.5927 78.1418 91.3108 71.2696 87.8947 64.3974C86.7587 61.964 85.3307 59.6733 84.4787 57.2399C83.1927 53.9505 82.6247 50.5104 82.4827 47.0783C82.3407 44.5022 82.4827 41.7835 82.7667 39.2074C82.9087 37.4874 83.4767 35.918 83.4767 34.198C83.9028 32.6206 83.0507 32.4779 81.7648 33.4767V33.4767Z" fill="#5C9DD5"/>
</svg>
