<svg width="167" height="167" viewBox="0 0 167 167" fill="none" xmlns="http://www.w3.org/2000/svg">
<path opacity="0.2" d="M83.2386 166.931C129.157 166.931 166.381 129.707 166.381 83.7883C166.381 37.8699 129.157 0.64563 83.2386 0.64563C37.3202 0.64563 0.0959473 37.8699 0.0959473 83.7883C0.0959473 129.707 37.3202 166.931 83.2386 166.931Z" fill="#8672C1"/>
<mask id="mask0_1_3315" style="mask-type:luminance" maskUnits="userSpaceOnUse" x="0" y="0" width="167" height="167">
<path d="M83.2386 166.931C129.157 166.931 166.381 129.707 166.381 83.7883C166.381 37.8699 129.157 0.64563 83.2386 0.64563C37.3202 0.64563 0.0959473 37.8699 0.0959473 83.7883C0.0959473 129.707 37.3202 166.931 83.2386 166.931Z" fill="white"/>
</mask>
<g mask="url(#mask0_1_3315)">
<path fill-rule="evenodd" clip-rule="evenodd" d="M81.2482 125.904L78.1242 119.755L45.6217 55.1291C45.6217 55.1291 44.8905 52.9706 46.3528 52.6435C51.1385 52.5127 55.5253 52.5127 59.9122 52.4473C59.9122 52.4473 60.4439 52.4473 60.8427 53.4284C61.2415 54.4096 86.9644 104.972 86.9644 104.972C86.9644 104.972 92.6806 110.205 97.2004 104.907C100.79 97.9733 114.349 71.2202 123.588 52.9052C123.588 52.9052 125.316 51.924 126.778 52.5127C128.241 53.1014 127.576 54.2788 127.576 54.2788L91.6836 125.25C91.7501 125.25 87.4297 131.529 81.2482 125.904V125.904Z" fill="url(#paint0_linear_1_3315)"/>
<path fill-rule="evenodd" clip-rule="evenodd" d="M46.2199 56.045L69.2176 83.5176L79.2542 121.783L46.2199 56.045Z" fill="#1F231C" fill-opacity="0.0549828"/>
<path fill-rule="evenodd" clip-rule="evenodd" d="M62.305 56.2412L69.1512 83.5176L85.768 102.487L62.305 56.2412V56.2412Z" fill="#15191C" fill-opacity="0.0549828"/>
<path fill-rule="evenodd" clip-rule="evenodd" d="M79.0548 121.391L69.1512 83.5175L85.768 102.421L87.9614 111.383L79.0548 121.391V121.391Z" fill="url(#paint1_linear_1_3315)"/>
</g>
<defs>
<linearGradient id="paint0_linear_1_3315" x1="-100.398" y1="175.833" x2="169.61" y2="480.518" gradientUnits="userSpaceOnUse">
<stop stop-color="#A875CF"/>
<stop offset="1" stop-color="#18BBFE"/>
</linearGradient>
<linearGradient id="paint1_linear_1_3315" x1="52.9301" y1="182.302" x2="146.495" y2="202.896" gradientUnits="userSpaceOnUse">
<stop stop-opacity="0.1"/>
<stop offset="1" stop-color="white" stop-opacity="0.01"/>
</linearGradient>
</defs>
</svg>
